<?xml version="1.0" encoding="UTF-8" standalone="no"?>
<!DOCTYPE svg PUBLIC "-//W3C//DTD SVG 1.1//EN" "http://www.w3.org/Graphics/SVG/1.1/DTD/svg11.dtd">
<svg width="100%" height="100%" viewBox="0 0 598 430" version="1.1" xmlns="http://www.w3.org/2000/svg" xmlns:xlink="http://www.w3.org/1999/xlink" xml:space="preserve" xmlns:serif="http://www.serif.com/" style="fill-rule:evenodd;clip-rule:evenodd;stroke-linejoin:round;stroke-miterlimit:1.41421;">
    <g transform="matrix(1,0,0,1,-408.044,-106.276)">
        <g transform="matrix(1,0,0,1,86.2037,-90.7408)">
            <path d="M621.84,226.505C634.068,183.661 515.162,190.879 321.84,226.505L321.84,626.505L621.84,626.505L621.84,226.505ZM602.022,257.906C612.484,222.324 510.746,228.318 345.338,257.906L345.338,590.106C450.153,565.455 510.273,556.315 545.418,555.842C599.285,555.117 594.483,574.753 602.022,590.106L602.022,257.906Z" style="fill:rgb(87,32,126);"/>
        </g>
        <g transform="matrix(-1,0,0,1,1327.74,-90.7408)">
            <path d="M621.84,226.505C634.068,183.661 515.162,190.879 321.84,226.505L321.84,626.505L621.84,626.505L621.84,226.505ZM602.022,257.906C612.484,222.324 510.746,228.318 345.338,257.906L345.338,590.106C450.153,565.455 510.273,556.315 545.418,555.842C599.285,555.117 594.483,574.753 602.022,590.106L602.022,257.906Z" style="fill:rgb(87,32,126);"/>
        </g>
    </g>
</svg>
