<?xml version="1.0" encoding="UTF-8" standalone="no"?><!DOCTYPE svg PUBLIC "-//W3C//DTD SVG 1.1//EN" "http://www.w3.org/Graphics/SVG/1.1/DTD/svg11.dtd"><svg width="100%" height="100%" viewBox="0 0 228 183" version="1.1" xmlns="http://www.w3.org/2000/svg" xmlns:xlink="http://www.w3.org/1999/xlink" xml:space="preserve" xmlns:serif="http://www.serif.com/" style="fill-rule:evenodd;clip-rule:evenodd;stroke-linecap:round;stroke-linejoin:round;stroke-miterlimit:1.5;"><g><path d="M53.569,23.45c14.957,-12.209 29.29,-18.949 43.209,-19.641c15.025,-0.747 29.568,5.554 43.894,19.63" style="fill:none;stroke:#fff;stroke-width:7.5px;"/><path d="M226.598,181.914l-144.842,0l7.759,-119.96l129.323,0l7.76,119.96Zm-12.217,-10.119l-6.451,-99.723l-107.507,0l-6.45,99.723l120.408,0Z" style="fill:#fff;stroke:#fff;stroke-width:1px;stroke-linecap:butt;stroke-miterlimit:1.41421;"/><path d="M182.568,65.32l-15.093,0l-2.281,-35.26l-140.327,0l-8.42,130.167l73.764,0l-0.854,13.207l-88.857,0l10.128,-156.581l168.805,0l3.135,48.467Z" style="fill:#fff;stroke:#fff;stroke-width:1px;stroke-linecap:butt;stroke-miterlimit:1.41421;"/><path d="M110.107,61.521c15.455,-13.998 30.265,-21.726 44.648,-22.52c15.525,-0.856 30.553,6.368 45.356,22.508" style="fill:none;stroke:#fff;stroke-width:7.5px;"/><text x="126.776px" y="154.125px" style="font-family:'Arimo-Regular', 'Arimo', sans-serif;font-size:99.896px;fill:#fff;stroke:#fff;stroke-width:1px;stroke-linecap:butt;stroke-miterlimit:1.41421;">$</text></g></svg>