<?xml version="1.0" encoding="UTF-8" standalone="no"?><!DOCTYPE svg PUBLIC "-//W3C//DTD SVG 1.1//EN" "http://www.w3.org/Graphics/SVG/1.1/DTD/svg11.dtd"><svg width="100%" height="100%" viewBox="0 0 307 163" version="1.1" xmlns="http://www.w3.org/2000/svg" xmlns:xlink="http://www.w3.org/1999/xlink" xml:space="preserve" xmlns:serif="http://www.serif.com/" style="fill-rule:evenodd;clip-rule:evenodd;stroke-linecap:round;stroke-linejoin:round;stroke-miterlimit:1.5;"><g><path d="M70.583,59.152c2.3,0 4.167,1.803 4.167,4.024l0,13.281l14.583,0c2.3,0 4.167,1.803 4.167,4.024l0,8.049c0,2.221 -1.867,4.024 -4.167,4.024l-14.583,0l0,14.891c0,2.221 -1.867,4.024 -4.167,4.024l-8.333,0c-2.3,0 -4.167,-1.803 -4.167,-4.024l0,-14.891l-14.583,0c-2.3,0 -4.167,-1.803 -4.167,-4.024l0,-8.049c0,-2.221 1.867,-4.024 4.167,-4.024l14.583,0l0,-13.281c0,-2.221 1.867,-4.024 4.167,-4.024l8.333,0Z" style="fill:none;stroke:#fff;stroke-width:5px;"/><g><ellipse cx="240.871" cy="69.213" rx="10.702" ry="10.061" style="fill:none;stroke:#fff;stroke-width:5px;"/><ellipse cx="220.871" cy="87.725" rx="10.417" ry="10.061" style="fill:none;stroke:#fff;stroke-width:5px;"/><ellipse cx="260.871" cy="88.53" rx="10.417" ry="10.061" style="fill:none;stroke:#fff;stroke-width:5px;"/><ellipse cx="241.156" cy="107.042" rx="10.702" ry="10.061" style="fill:none;stroke:#fff;stroke-width:5px;"/></g><g><path d="M145.167,108.306c0,-1.034 -0.84,-1.875 -1.875,-1.875l-25.417,0c-1.035,0 -1.875,0.841 -1.875,1.875l0,3.75c0,1.035 0.84,1.875 1.875,1.875l25.417,0c1.035,0 1.875,-0.84 1.875,-1.875l0,-3.75Z" style="fill:none;stroke:#fff;stroke-width:5px;"/><path d="M191,108.306c0,-1.034 -0.84,-1.875 -1.875,-1.875l-25.417,0c-1.035,0 -1.875,0.841 -1.875,1.875l0,3.75c0,1.035 0.84,1.875 1.875,1.875l25.417,0c1.035,0 1.875,-0.84 1.875,-1.875l0,-3.75Z" style="fill:none;stroke:#fff;stroke-width:5px;"/></g><path d="M65.229,9.559l0,-0.059l182.338,0.629c31.54,4.783 55.933,36.28 55.933,74.371c0,41.394 -28.805,75 -64.286,75c-19.055,0 -36.185,-9.693 -47.961,-25.081l-75.506,0c-11.776,15.388 -28.906,25.081 -47.961,25.081c-35.481,0 -64.286,-33.606 -64.286,-75c0,-40.395 27.432,-73.373 61.729,-74.941Z" style="fill:none;stroke:#fff;stroke-width:7px;"/><path d="M125.51,2c1.495,0 2.708,1.023 2.708,2.282l0,3.218l-67.718,-0.169l0,-3.049c0,-1.259 1.214,-2.282 2.709,-2.282l62.301,0Z" style="fill:none;stroke:#fff;stroke-width:4px;"/><path d="M243.791,2.5c1.495,0 2.709,1.056 2.709,2.358l0,3.143l-67.718,0l0,-3.143c0,-1.302 1.213,-2.358 2.708,-2.358l62.301,0Z" style="fill:none;stroke:#fff;stroke-width:4px;"/><path d="M164.296,70.062l7.416,0l-21.744,-25.196l20.016,-22.819l-7.488,0l-21.24,24.835l0,-24.835l-5.967,0l0,48.015l5.967,0l0,-16.125l4.824,-5.471l18.216,21.596Z" style="fill:none;stroke:#fff;stroke-width:4px;stroke-linecap:butt;stroke-miterlimit:1.41421;"/><g><ellipse cx="66" cy="85.31" rx="37.5" ry="36.22" style="fill:none;stroke:#fff;stroke-width:5px;"/><ellipse cx="241" cy="87.871" rx="37.5" ry="36.22" style="fill:none;stroke:#fff;stroke-width:5px;"/></g></g></svg>