<?xml version="1.0" encoding="UTF-8" standalone="no"?><!DOCTYPE svg PUBLIC "-//W3C//DTD SVG 1.1//EN" "http://www.w3.org/Graphics/SVG/1.1/DTD/svg11.dtd"><svg width="100%" height="100%" viewBox="0 0 150 150" version="1.1" xmlns="http://www.w3.org/2000/svg" xmlns:xlink="http://www.w3.org/1999/xlink" xml:space="preserve" xmlns:serif="http://www.serif.com/" style="fill-rule:evenodd;clip-rule:evenodd;stroke-linejoin:round;stroke-miterlimit:1.41421;"><g><path d="M150,67.5c0,-4.139 -3.361,-7.5 -7.5,-7.5l-135,0c-4.139,0 -7.5,3.361 -7.5,7.5l0,15c0,4.139 3.361,7.5 7.5,7.5l135,0c4.139,0 7.5,-3.361 7.5,-7.5l0,-15Z" style="fill:#fff;"/><path d="M150,122.5c0,-4.139 -3.361,-7.5 -7.5,-7.5l-135,0c-4.139,0 -7.5,3.361 -7.5,7.5l0,15c0,4.139 3.361,7.5 7.5,7.5l135,0c4.139,0 7.5,-3.361 7.5,-7.5l0,-15Z" style="fill:#fff;"/><path d="M150,12.5c0,-4.139 -3.361,-7.5 -7.5,-7.5l-135,0c-4.139,0 -7.5,3.361 -7.5,7.5l0,15c0,4.139 3.361,7.5 7.5,7.5l135,0c4.139,0 7.5,-3.361 7.5,-7.5l0,-15Z" style="fill:#fff;"/></g></svg>