<?xml version="1.0" encoding="UTF-8" standalone="no"?><!DOCTYPE svg PUBLIC "-//W3C//DTD SVG 1.1//EN" "http://www.w3.org/Graphics/SVG/1.1/DTD/svg11.dtd"><svg width="100%" height="100%" viewBox="0 0 557 406" version="1.1" xmlns="http://www.w3.org/2000/svg" xmlns:xlink="http://www.w3.org/1999/xlink" xml:space="preserve" xmlns:serif="http://www.serif.com/" style="fill-rule:evenodd;clip-rule:evenodd;stroke-linecap:round;stroke-linejoin:round;stroke-miterlimit:1.5;"><g><g><g><path d="M101.741,292.851c0,-5.785 -4.696,-10.481 -10.48,-10.481l-20.96,0c-5.785,0 -10.481,4.696 -10.481,10.481l0,22.158c0,5.784 4.696,10.48 10.481,10.48l20.96,0c5.784,0 10.48,-4.696 10.48,-10.48l0,-22.158Z" style="fill:none;stroke:#57207e;stroke-width:5px;"/><path d="M16.93,260.432l35.617,22.566c30.037,-1.361 28.973,-0.262 56.409,0l35.533,-22.566l-127.559,0Z" style="fill:none;stroke:#57207e;stroke-width:5px;"/><path d="M151.187,10.889c0.082,-2.198 -0.807,-4.333 -2.463,-5.914c-1.656,-1.582 -3.937,-2.475 -6.32,-2.475c-25.672,0 -98.483,0 -124.156,0c-2.383,0 -4.664,0.893 -6.32,2.475c-1.656,1.581 -2.545,3.716 -2.463,5.914c1.176,31.463 5.257,140.663 5.257,140.663c42.09,9.08 85.806,9.196 131.208,0c0,0 4.081,-109.2 5.257,-140.663Z" style="fill:none;stroke:#57207e;stroke-width:5px;"/><path d="M140.408,24.437c0.07,-1.996 -0.684,-3.934 -2.088,-5.371c-1.404,-1.436 -3.346,-2.031 -5.359,-2.247c-21.126,-2.265 -82.524,-3.458 -105.27,0c-2.005,0.305 -3.955,0.811 -5.359,2.247c-1.404,1.437 -2.157,3.375 -2.088,5.371c0.997,28.573 4.457,127.745 4.457,127.745c35.688,8.245 72.754,8.351 111.25,0c0,0 3.46,-99.172 4.457,-127.745Z" style="fill:none;stroke:#57207e;stroke-width:5px;"/><path d="M144.219,191.227c-38.443,3.441 -81.172,3.264 -127.559,0l0,68.272c22.059,4.955 43.166,1.208 65.238,1.065c20.448,-0.132 41.861,3.713 62.321,-1.065l0,-68.272Z" style="fill:none;stroke:#57207e;stroke-width:5px;"/><path d="M158.406,161.278c0,-5.546 -4.464,-10.048 -9.962,-10.048c-44.469,5.025 -89.785,5.09 -135.982,0c-5.498,0 -9.962,4.502 -9.962,10.048l0,20.097c0,5.545 4.464,10.048 9.962,10.048c43.811,6.277 88.932,6.34 135.982,0c5.498,0 9.962,-4.503 9.962,-10.048l0,-20.097Z" style="fill:none;stroke:#57207e;stroke-width:5px;"/></g><path d="M79.363,325.341c-13.121,12.092 -40.392,25.342 -39.363,36.276c1.029,10.935 49.14,23.67 45.538,29.33c-3.602,5.66 -73.058,21.94 -67.15,4.631c11.533,-33.786 164.187,-108.19 216.115,-49.397c5.596,6.335 -9.253,23.823 -18.384,27.715c-32.31,13.772 -9.749,-44.781 -5.543,-111.846l-0.731,-232.629l343.668,0l0,343.668l-246.417,2.316" style="fill:none;stroke:#57207e;stroke-width:5px;"/></g><g><path d="M256.779,376.293c-0.089,-3.833 0.776,-6.967 1.931,-6.993c1.154,-0.027 2.164,3.063 2.252,6.897c0.089,3.833 -0.776,6.967 -1.931,6.994c-1.154,0.026 -2.164,-3.064 -2.252,-6.898Z" style="fill:none;stroke:#57207e;stroke-width:3px;"/><path d="M258.795,383.161l9.707,-0.626c2.724,-4.444 2.102,-8.729 0.193,-12.978l-10.228,-0.149" style="fill:none;stroke:#57207e;stroke-width:3px;"/><path d="M268.897,382.482c0.302,0.48 0.998,0.897 2.313,1.216l15.847,-0.747c2.036,-4.955 1.97,-9.863 -0.423,-14.72l0.084,0.056l-15.865,-0.014c-1.299,0.378 -1.975,0.827 -2.254,1.321c2.205,3.896 2.341,8.185 0.298,12.888Z" style="fill:none;stroke:#57207e;stroke-width:3px;"/><path d="M270.687,383.465c1.639,-4.048 1.911,-8.542 -0.35,-15.124" style="fill:none;stroke:#57207e;stroke-width:3px;"/><path d="M286.567,368.183c2.121,4.346 2.573,9.149 0.341,14.744l18.885,-4.125l-0.171,-7.372l-19.055,-3.247Z" style="fill:none;stroke:#57207e;stroke-width:3px;"/></g><g><path d="M350.594,233.036l30.203,0l-88.555,-99.036l81.518,-89.696l-30.496,0l-86.503,97.619l0,-97.619l-24.302,0l0,188.732l24.302,0l0,-63.383l19.646,-21.505l74.187,84.888Z" style="fill:none;stroke:#57207e;stroke-width:7.5px;stroke-linecap:butt;stroke-miterlimit:1.41421;"/><path d="M510.13,356.373l25.877,0l-75.661,-188.728l-28.971,0l-75.379,188.728l25.876,0l16.595,-41.885l95.068,0l16.595,41.885Zm-64.129,-167.822l40.503,105.03l-81.286,0l40.783,-105.03Z" style="fill:none;stroke:#57207e;stroke-width:7.5px;stroke-linecap:butt;stroke-miterlimit:1.41421;"/></g></g></svg>